<svg version="1.1" xmlns="http://www.w3.org/2000/svg" xmlns:xlink="http://www.w3.org/1999/xlink" x="0px" y="0px"
	 viewBox="0 0 177 37" fill="white" enable-background="new 0 0 177 37" xml:space="preserve">
<path d="M142,0h-2h-33h-2H72h-2H37h-2H0v37h35h2h33h2h33h2h33h2h35V0H142z M107,2h33v33h-33V2z M72,2h33v33H72V2z M37,2h33v33H37V2z
	 M2,35V2h33v33H2z M175,35h-33V2h33V35z"/>
<path d="M13,10.5h5.6c1.2,0,2.2,0.2,3.1,0.5c0.9,0.3,1.7,0.8,2.3,1.5c0.6,0.7,1.1,1.5,1.5,2.5c0.3,1,0.5,2.1,0.5,3.5
	c0,1.3-0.2,2.5-0.5,3.5c-0.4,1-0.9,1.9-1.6,2.5c-0.7,0.7-1.5,1.2-2.5,1.5c-1,0.3-2.1,0.5-3.3,0.5H13V10.5z M18.2,24.7
	c2,0,3.4-0.6,4.3-1.7c0.9-1.1,1.4-2.6,1.4-4.6c0-1-0.1-1.8-0.3-2.6c-0.2-0.8-0.5-1.4-0.9-1.9c-0.4-0.5-1-0.9-1.6-1.2
	c-0.7-0.3-1.5-0.4-2.4-0.4h-3.5v12.4H18.2z"/>
<path d="M47.9,21.2L55.3,11h1.9v10h1.9l0,1.6h-1.9v3.9h-1.9v-3.9h-7.4V21.2z M55.3,21v-7.4L50,21.1L55.3,21z"/>
<path d="M82.7,24.9l9.2-12.6h-9v-1.8h11.5v1.6l-9.2,12.5h9.1l0,1.8H82.7V24.9z"/>
<path d="M118.3,10.5h10.4v1.8h-8.3v5h7.8v1.8h-7.8v5.5h8.4l0,1.8h-10.5V10.5z"/>
<path d="M152,10.5h5.6c1.2,0,2.2,0.2,3.1,0.5c0.9,0.3,1.7,0.8,2.3,1.5c0.6,0.7,1.1,1.5,1.5,2.5c0.3,1,0.5,2.1,0.5,3.5
	c0,1.3-0.2,2.5-0.5,3.5c-0.4,1-0.9,1.9-1.6,2.5c-0.7,0.7-1.5,1.2-2.5,1.5c-1,0.3-2.1,0.5-3.3,0.5H152V10.5z M157.2,24.7
	c2,0,3.4-0.6,4.3-1.7c0.9-1.1,1.4-2.6,1.4-4.6c0-1-0.1-1.8-0.3-2.6c-0.2-0.8-0.5-1.4-0.9-1.9c-0.4-0.5-1-0.9-1.6-1.2
	c-0.7-0.3-1.5-0.4-2.4-0.4h-3.5v12.4H157.2z"/>
</svg>
